<mxfile host="app.diagrams.net" agent="Mozilla/5.0 (X11; CrOS x86_64 14541.0.0) AppleWebKit/537.36 (KHTML, like Gecko) Chrome/134.0.0.0 Safari/537.36" version="26.2.9">
  <diagram name="Página-1" id="FVHnNXLtPHv8SmroHsli">
    <mxGraphModel dx="1372" dy="636" grid="1" gridSize="10" guides="1" tooltips="1" connect="1" arrows="1" fold="1" page="1" pageScale="1" pageWidth="827" pageHeight="1169" math="0" shadow="0">
      <root>
        <mxCell id="0" />
        <mxCell id="1" parent="0" />
        <mxCell id="3feBCTpOt0pPDRztDAhV-1" value="Cliente&amp;nbsp;" style="shape=umlActor;verticalLabelPosition=bottom;verticalAlign=top;html=1;outlineConnect=0;" vertex="1" parent="1">
          <mxGeometry x="50" y="300" width="30" height="60" as="geometry" />
        </mxCell>
        <mxCell id="3feBCTpOt0pPDRztDAhV-10" value="" style="endArrow=classic;html=1;rounded=0;exitX=1;exitY=0.3333333333333333;exitDx=0;exitDy=0;exitPerimeter=0;" edge="1" parent="1" source="3feBCTpOt0pPDRztDAhV-1" target="3feBCTpOt0pPDRztDAhV-18">
          <mxGeometry width="50" height="50" relative="1" as="geometry">
            <mxPoint x="100" y="330" as="sourcePoint" />
            <mxPoint x="140" y="250" as="targetPoint" />
          </mxGeometry>
        </mxCell>
        <mxCell id="3feBCTpOt0pPDRztDAhV-11" value="" style="endArrow=classic;html=1;rounded=0;" edge="1" parent="1" target="3feBCTpOt0pPDRztDAhV-19">
          <mxGeometry width="50" height="50" relative="1" as="geometry">
            <mxPoint x="80" y="320" as="sourcePoint" />
            <mxPoint x="160" y="310" as="targetPoint" />
          </mxGeometry>
        </mxCell>
        <mxCell id="3feBCTpOt0pPDRztDAhV-12" value="" style="endArrow=classic;html=1;rounded=0;" edge="1" parent="1" target="3feBCTpOt0pPDRztDAhV-21">
          <mxGeometry width="50" height="50" relative="1" as="geometry">
            <mxPoint x="80" y="320" as="sourcePoint" />
            <mxPoint x="160" y="360" as="targetPoint" />
          </mxGeometry>
        </mxCell>
        <mxCell id="3feBCTpOt0pPDRztDAhV-13" value="" style="endArrow=classic;html=1;rounded=0;exitX=1;exitY=0.3333333333333333;exitDx=0;exitDy=0;exitPerimeter=0;" edge="1" parent="1" source="3feBCTpOt0pPDRztDAhV-1" target="3feBCTpOt0pPDRztDAhV-22">
          <mxGeometry width="50" height="50" relative="1" as="geometry">
            <mxPoint x="110" y="530" as="sourcePoint" />
            <mxPoint x="140" y="420" as="targetPoint" />
          </mxGeometry>
        </mxCell>
        <mxCell id="3feBCTpOt0pPDRztDAhV-14" value="" style="endArrow=classic;html=1;rounded=0;exitX=1;exitY=0.3333333333333333;exitDx=0;exitDy=0;exitPerimeter=0;" edge="1" parent="1" source="3feBCTpOt0pPDRztDAhV-1" target="3feBCTpOt0pPDRztDAhV-23">
          <mxGeometry width="50" height="50" relative="1" as="geometry">
            <mxPoint x="60" y="270" as="sourcePoint" />
            <mxPoint x="130" y="220" as="targetPoint" />
            <Array as="points" />
          </mxGeometry>
        </mxCell>
        <mxCell id="3feBCTpOt0pPDRztDAhV-15" value="" style="endArrow=classic;html=1;rounded=0;" edge="1" parent="1" target="3feBCTpOt0pPDRztDAhV-32">
          <mxGeometry width="50" height="50" relative="1" as="geometry">
            <mxPoint x="80" y="320" as="sourcePoint" />
            <mxPoint x="140" y="460" as="targetPoint" />
          </mxGeometry>
        </mxCell>
        <mxCell id="3feBCTpOt0pPDRztDAhV-16" value="" style="endArrow=classic;html=1;rounded=0;" edge="1" parent="1">
          <mxGeometry width="50" height="50" relative="1" as="geometry">
            <mxPoint x="110" y="630" as="sourcePoint" />
            <mxPoint x="160" y="580" as="targetPoint" />
          </mxGeometry>
        </mxCell>
        <mxCell id="3feBCTpOt0pPDRztDAhV-24" style="edgeStyle=orthogonalEdgeStyle;rounded=0;orthogonalLoop=1;jettySize=auto;html=1;exitX=1;exitY=0.5;exitDx=0;exitDy=0;" edge="1" parent="1" source="3feBCTpOt0pPDRztDAhV-18" target="3feBCTpOt0pPDRztDAhV-25">
          <mxGeometry relative="1" as="geometry">
            <mxPoint x="370" y="255" as="targetPoint" />
          </mxGeometry>
        </mxCell>
        <mxCell id="3feBCTpOt0pPDRztDAhV-18" value="Agendar o Evento" style="ellipse;whiteSpace=wrap;html=1;" vertex="1" parent="1">
          <mxGeometry x="160" y="220" width="90" height="70" as="geometry" />
        </mxCell>
        <mxCell id="3feBCTpOt0pPDRztDAhV-26" style="edgeStyle=orthogonalEdgeStyle;rounded=0;orthogonalLoop=1;jettySize=auto;html=1;exitX=1;exitY=0.5;exitDx=0;exitDy=0;" edge="1" parent="1" source="3feBCTpOt0pPDRztDAhV-19" target="3feBCTpOt0pPDRztDAhV-27">
          <mxGeometry relative="1" as="geometry">
            <mxPoint x="300" y="330" as="targetPoint" />
          </mxGeometry>
        </mxCell>
        <mxCell id="3feBCTpOt0pPDRztDAhV-19" value="Qual o tipo de evento" style="ellipse;whiteSpace=wrap;html=1;" vertex="1" parent="1">
          <mxGeometry x="170" y="300" width="80" height="60" as="geometry" />
        </mxCell>
        <mxCell id="3feBCTpOt0pPDRztDAhV-28" style="edgeStyle=orthogonalEdgeStyle;rounded=0;orthogonalLoop=1;jettySize=auto;html=1;exitX=1;exitY=0.5;exitDx=0;exitDy=0;" edge="1" parent="1" source="3feBCTpOt0pPDRztDAhV-21" target="3feBCTpOt0pPDRztDAhV-29">
          <mxGeometry relative="1" as="geometry">
            <mxPoint x="340" y="415" as="targetPoint" />
          </mxGeometry>
        </mxCell>
        <mxCell id="3feBCTpOt0pPDRztDAhV-21" value="Informações que deve ser coletadas&amp;nbsp;" style="ellipse;whiteSpace=wrap;html=1;" vertex="1" parent="1">
          <mxGeometry x="150" y="380" width="110" height="70" as="geometry" />
        </mxCell>
        <mxCell id="3feBCTpOt0pPDRztDAhV-30" style="edgeStyle=orthogonalEdgeStyle;rounded=0;orthogonalLoop=1;jettySize=auto;html=1;exitX=1;exitY=0.5;exitDx=0;exitDy=0;entryX=0;entryY=0.5;entryDx=0;entryDy=0;" edge="1" parent="1" source="3feBCTpOt0pPDRztDAhV-22" target="3feBCTpOt0pPDRztDAhV-31">
          <mxGeometry relative="1" as="geometry">
            <mxPoint x="250" y="510" as="targetPoint" />
            <Array as="points">
              <mxPoint x="120" y="560" />
              <mxPoint x="130" y="560" />
              <mxPoint x="130" y="565" />
            </Array>
          </mxGeometry>
        </mxCell>
        <mxCell id="3feBCTpOt0pPDRztDAhV-22" value="Pagamento&amp;nbsp;" style="ellipse;whiteSpace=wrap;html=1;" vertex="1" parent="1">
          <mxGeometry x="40" y="535" width="80" height="60" as="geometry" />
        </mxCell>
        <mxCell id="3feBCTpOt0pPDRztDAhV-23" value="Cadastrar o evento&amp;nbsp;" style="ellipse;whiteSpace=wrap;html=1;" vertex="1" parent="1">
          <mxGeometry x="80" y="170" width="90" height="60" as="geometry" />
        </mxCell>
        <mxCell id="3feBCTpOt0pPDRztDAhV-25" value="&lt;div&gt;Localização:&amp;nbsp;&lt;/div&gt;Data: / /&lt;div&gt;Horário:&amp;nbsp;&amp;nbsp;&lt;/div&gt;" style="ellipse;whiteSpace=wrap;html=1;" vertex="1" parent="1">
          <mxGeometry x="280" y="218.75" width="100" height="72.5" as="geometry" />
        </mxCell>
        <mxCell id="3feBCTpOt0pPDRztDAhV-27" value="&lt;div&gt;&lt;font style=&quot;font-size: 8px;&quot;&gt;&lt;br&gt;&lt;/font&gt;&lt;/div&gt;&lt;font style=&quot;font-size: 8px;&quot;&gt;&lt;div&gt;&lt;font style=&quot;font-size: 8px;&quot;&gt;&lt;br&gt;&lt;/font&gt;&lt;/div&gt;Eventos corporativos&lt;/font&gt;&lt;div&gt;&lt;font style=&quot;font-size: 8px;&quot;&gt;Conferência de negócios&lt;/font&gt;&lt;/div&gt;&lt;div&gt;&lt;font style=&quot;font-size: 8px;&quot;&gt;Workshop ;&amp;nbsp;&lt;/font&gt;&lt;span style=&quot;font-size: 8px; background-color: transparent; color: light-dark(rgb(0, 0, 0), rgb(255, 255, 255));&quot;&gt;Feiras ;&amp;nbsp;&lt;/span&gt;&lt;/div&gt;&lt;div&gt;&lt;span style=&quot;font-size: 8px; background-color: transparent; color: light-dark(rgb(0, 0, 0), rgb(255, 255, 255));&quot;&gt;Eventos sociais&amp;nbsp;&lt;/span&gt;&lt;/div&gt;&lt;div&gt;&lt;font style=&quot;font-size: 8px;&quot;&gt;Palestras&lt;/font&gt;&lt;/div&gt;&lt;div&gt;&lt;font style=&quot;font-size: 8px;&quot;&gt;&amp;nbsp;&amp;nbsp;&lt;/font&gt;&lt;/div&gt;" style="ellipse;whiteSpace=wrap;html=1;" vertex="1" parent="1">
          <mxGeometry x="290" y="290" width="110" height="90" as="geometry" />
        </mxCell>
        <mxCell id="3feBCTpOt0pPDRztDAhV-29" value="&lt;div&gt;&lt;span style=&quot;background-color: transparent; color: light-dark(rgb(0, 0, 0), rgb(255, 255, 255));&quot;&gt;&lt;font style=&quot;font-size: 9px;&quot;&gt;Tipo de eventos&lt;/font&gt;&lt;/span&gt;&lt;/div&gt;&lt;div&gt;&lt;span style=&quot;background-color: transparent; color: light-dark(rgb(0, 0, 0), rgb(255, 255, 255));&quot;&gt;&lt;font style=&quot;font-size: 9px;&quot;&gt;Quantidade de participantes&lt;/font&gt;&lt;/span&gt;&lt;/div&gt;&lt;div&gt;&lt;span style=&quot;background-color: transparent; color: light-dark(rgb(0, 0, 0), rgb(255, 255, 255));&quot;&gt;&lt;font style=&quot;font-size: 9px;&quot;&gt;Serviços adicionais&amp;nbsp;&lt;/font&gt;&lt;/span&gt;&lt;/div&gt;" style="ellipse;whiteSpace=wrap;html=1;" vertex="1" parent="1">
          <mxGeometry x="320" y="382.5" width="150" height="75" as="geometry" />
        </mxCell>
        <mxCell id="3feBCTpOt0pPDRztDAhV-35" style="edgeStyle=orthogonalEdgeStyle;rounded=0;orthogonalLoop=1;jettySize=auto;html=1;" edge="1" parent="1" source="3feBCTpOt0pPDRztDAhV-31" target="3feBCTpOt0pPDRztDAhV-36">
          <mxGeometry relative="1" as="geometry">
            <mxPoint x="400" y="565" as="targetPoint" />
          </mxGeometry>
        </mxCell>
        <mxCell id="3feBCTpOt0pPDRztDAhV-31" value="Boleto ou Pix" style="ellipse;whiteSpace=wrap;html=1;" vertex="1" parent="1">
          <mxGeometry x="230" y="530" width="90" height="70" as="geometry" />
        </mxCell>
        <mxCell id="3feBCTpOt0pPDRztDAhV-33" style="edgeStyle=orthogonalEdgeStyle;rounded=0;orthogonalLoop=1;jettySize=auto;html=1;" edge="1" parent="1" source="3feBCTpOt0pPDRztDAhV-32" target="3feBCTpOt0pPDRztDAhV-34">
          <mxGeometry relative="1" as="geometry">
            <mxPoint x="280" y="497.5" as="targetPoint" />
          </mxGeometry>
        </mxCell>
        <mxCell id="3feBCTpOt0pPDRztDAhV-32" value="Confirmar o agendamento do evento" style="ellipse;whiteSpace=wrap;html=1;" vertex="1" parent="1">
          <mxGeometry x="110" y="465" width="100" height="65" as="geometry" />
        </mxCell>
        <mxCell id="3feBCTpOt0pPDRztDAhV-34" value="até 7 dias de antecedência para cancelar&amp;nbsp;&amp;nbsp;" style="ellipse;whiteSpace=wrap;html=1;" vertex="1" parent="1">
          <mxGeometry x="270" y="457.5" width="110" height="72.5" as="geometry" />
        </mxCell>
        <mxCell id="3feBCTpOt0pPDRztDAhV-36" value="Pagar 50% antes&lt;div&gt;Pagar 50% ao final do evento&lt;/div&gt;" style="ellipse;whiteSpace=wrap;html=1;" vertex="1" parent="1">
          <mxGeometry x="370" y="532.5" width="120" height="77.5" as="geometry" />
        </mxCell>
      </root>
    </mxGraphModel>
  </diagram>
</mxfile>
